<?xml version="1.0" encoding="utf-8"?>
<!-- Generator: Adobe Illustrator 15.0.2, SVG Export Plug-In . SVG Version: 6.00 Build 0)  -->
<svg version="1.2" baseProfile="tiny" id="Layer_1" xmlns="http://www.w3.org/2000/svg" xmlns:xlink="http://www.w3.org/1999/xlink"
	 x="0px" y="0px" width="339.958px" height="339.729px" viewBox="0 0 339.958 339.729" xml:space="preserve">
<g>
	<g>
		<path fill="#FFFFFF" d="M319.955,169.902c-0.19,44.048-19.414,85.3-52.586,114.182c-32.712,28.482-78.237,40.967-120.994,34.105
			c-42.678-6.849-80.7-32.231-103.682-68.774c-23.647-37.602-28.799-84.413-15.184-126.611
			c13.227-40.995,44.819-73.95,84.013-91.108c39.913-17.474,87.806-15.135,126.496,4.555
			C288.032,61.706,319.713,113.972,319.955,169.902c0.056,12.912,20.06,13.031,20.004,0.145
			c-0.199-46.354-19.185-90.936-52.637-123.058c-33.391-32.062-79.546-48.99-125.701-46.8C115.692,2.368,71.87,23.769,41.703,58.417
			C11.199,93.451-3.778,140.381,0.815,186.604c4.532,45.603,27.619,88.204,63.647,116.606
			c37.339,29.436,84.682,41.413,131.603,34.706c39.321-5.62,76.152-26.532,102.146-56.386
			c26.83-30.815,41.572-70.674,41.748-111.484C340.014,157.128,320.01,157.02,319.955,169.902z"/>
	</g>
	<g>
		<g>
			<path fill="#FFFFFF" d="M144.467,84.972c-11.042,0.102-24.65,1.767-30.076,12.965c-4.537,9.363-3.222,21.87-3.886,31.971
				c-0.444,6.757,0.385,14.016-1.497,20.318c-0.88,2.946,0.659-1.074-0.648,1.501c-0.204,0.401-2.338,3.318-1.142,1.877
				c-0.569,0.686-1.222,1.296-1.871,1.904c-0.889,0.752-0.873,0.756,0.046,0.013c-0.45,0.321-0.91,0.626-1.381,0.916
				c-0.675,0.432-1.392,0.797-2.104,1.162c-1.661,0.851,1.75-0.57-0.993,0.401c-1.425,0.505-2.901,0.858-4.381,1.155
				c-3.395,0.681,1.796-0.08-0.916,0.139c-0.383,0.031-0.768,0.052-1.152,0.054c-12.911,0.081-13.033,19.924-0.145,20.004
				c0.496,0.003,0.99,0.042,1.484,0.082c0.761,0.062,2.885,0.407-0.403-0.089c0.747,0.113,1.486,0.27,2.224,0.432
				c0.854,0.188,1.693,0.435,2.529,0.69c0.509,0.156,3.41,1.392,1.044,0.334c0.959,0.429,1.87,0.954,2.769,1.496
				c0.463,0.289,0.916,0.595,1.357,0.915c-0.927-0.702-0.952-0.684-0.073,0.055c0.328,0.29,2.542,2.938,1.345,1.308
				c0.766,1.043,1.354,2.202,1.915,3.363c-0.687-1.424,0.519,2.239,0.618,2.679c0.275,1.214,0.231,2.094,0.26,3.661
				c0.143,7.659-0.034,15.316,0.243,22.976c0.377,10.448,1.299,21.047,8.125,29.406c6.165,7.55,17.634,8.279,26.562,8.316
				c12.918,0.054,13.027-19.95,0.145-20.004c-2.398-0.011-4.788-0.081-7.177-0.293c-1.849-0.164,1.625,0.344-1.131-0.181
				c-0.868-0.165-1.718-0.405-2.561-0.665c-1.724-0.531,2.023,1.073-0.38-0.181c-2.36-1.232,1.004,1.009-0.234-0.038
				c-0.603-0.51-2.128-2.532-0.25-0.011c-0.468-0.628-0.838-1.324-1.196-2.018c-0.763-1.477,0.754,2.245-0.153-0.553
				c-0.303-0.937-0.518-1.899-0.729-2.858c-0.238-1.082-0.399-2.179-0.559-3.273c0.339,2.332-0.117-1.652-0.149-2.054
				c-0.554-6.736-0.518-13.528-0.542-20.282c-0.029-8.276,0.065-16.079-3.235-23.812c-2.402-5.628-6.57-9.871-11.517-13.335
				c-5.554-3.888-13.413-6.029-20.186-6.072c-0.048,6.668-0.096,13.336-0.145,20.004c16.763-0.104,32.258-11.515,35.023-28.423
				c1.317-8.052,0.851-16.402,1.411-24.534c0.369-5.363,0.457-10.73,0.786-16.091c0.026-0.419,0.359-3.126-0.012-0.585
				c0.141-0.967,0.387-1.91,0.669-2.843c0.681-2.257-0.986,1.864,0.146-0.149c0.326-0.581-0.033,0.011-0.725,0.542
				c0.641-0.492,1.374-0.853,2.09-1.215c-2.017,1.02,1.662-0.35,2.18-0.471c2.269-0.529,5.554-0.579,8.433-0.605
				C157.23,104.858,157.355,84.854,144.467,84.972L144.467,84.972z"/>
		</g>
		<g>
			<path fill="#FFFFFF" d="M195.446,254.976c11.042-0.102,24.65-1.767,30.076-12.965c4.536-9.363,3.221-21.87,3.885-31.971
				c0.444-6.757-0.385-14.016,1.497-20.317c0.88-2.946-0.659,1.074,0.648-1.501c0.203-0.401,2.338-3.317,1.142-1.877
				c0.569-0.686,1.223-1.297,1.871-1.905c0.889-0.752,0.873-0.756-0.046-0.013c0.45-0.32,0.91-0.626,1.381-0.915
				c0.676-0.432,1.392-0.797,2.104-1.162c1.661-0.851-1.75,0.57,0.994-0.401c1.424-0.505,2.9-0.858,4.381-1.155
				c3.395-0.68-1.796,0.08,0.916-0.138c0.383-0.031,0.769-0.053,1.152-0.055c12.91-0.081,13.032-19.924,0.145-20.005
				c-0.495-0.003-0.99-0.041-1.483-0.081c-0.761-0.062-2.886-0.408,0.402,0.088c-0.747-0.113-1.486-0.269-2.225-0.431
				c-0.854-0.188-1.692-0.435-2.528-0.69c-0.51-0.156-3.41-1.392-1.045-0.333c-0.959-0.429-1.87-0.955-2.769-1.496
				c-0.464-0.29-0.916-0.595-1.358-0.916c0.928,0.702,0.952,0.684,0.074-0.054c-0.328-0.29-2.543-2.939-1.346-1.308
				c-0.766-1.043-1.354-2.202-1.915-3.363c0.688,1.424-0.519-2.24-0.618-2.679c-0.275-1.214-0.231-2.093-0.261-3.661
				c-0.143-7.66,0.034-15.316-0.242-22.976c-0.378-10.449-1.299-21.047-8.126-29.407c-6.164-7.549-17.633-8.279-26.562-8.316
				c-12.918-0.054-13.026,19.951-0.145,20.005c2.398,0.01,4.788,0.081,7.177,0.292c1.85,0.164-1.624-0.344,1.132,0.181
				c0.868,0.165,1.718,0.405,2.562,0.665c1.724,0.531-2.023-1.073,0.38,0.181c2.36,1.232-1.004-1.009,0.234,0.038
				c0.603,0.51,2.129,2.532,0.25,0.011c0.468,0.628,0.838,1.324,1.196,2.018c0.763,1.476-0.754-2.246,0.153,0.553
				c0.304,0.936,0.519,1.899,0.729,2.858c0.237,1.081,0.398,2.178,0.558,3.273c-0.339-2.332,0.117,1.652,0.15,2.053
				c0.554,6.737,0.518,13.529,0.541,20.283c0.029,8.276-0.065,16.079,3.235,23.812c2.402,5.627,6.57,9.871,11.518,13.334
				c5.554,3.889,13.413,6.029,20.186,6.072c0.048-6.668,0.097-13.336,0.145-20.005c-16.764,0.105-32.259,11.516-35.024,28.424
				c-1.317,8.051-0.851,16.401-1.41,24.533c-0.37,5.363-0.457,10.729-0.786,16.092c-0.025,0.419-0.358,3.126,0.013,0.585
				c-0.142,0.967-0.388,1.909-0.669,2.843c-0.681,2.257,0.985-1.864-0.146,0.149c-0.326,0.581,0.032-0.011,0.725-0.542
				c-0.64,0.492-1.373,0.853-2.09,1.215c2.018-1.02-1.662,0.351-2.18,0.471c-2.269,0.529-5.554,0.58-8.433,0.606
				C182.683,235.09,182.557,255.095,195.446,254.976L195.446,254.976z"/>
		</g>
	</g>
</g>
</svg>
